<?xml version="1.0" encoding="utf-8"?>
<!-- Generator: Adobe Illustrator 23.0.2, SVG Export Plug-In . SVG Version: 6.00 Build 0)  -->
<svg version="1.1" id="Layer_1" xmlns="http://www.w3.org/2000/svg" xmlns:xlink="http://www.w3.org/1999/xlink" x="0px" y="0px"
	 viewBox="0 0 800 800" style="enable-background:new 0 0 800 800;" xml:space="preserve">
<path d="M33.34,140.89c0.17-0.44,0.37-0.87,0.51-1.32c11.5-37.54,30.52-51.49,70.19-51.49c199.05,0,398.09-0.01,597.14,0.01
	c31.61,0,55.34,16.76,63,44.88c1.61,5.9,2.38,12.22,2.39,18.34c0.13,153.46,0.14,306.92,0.07,460.38
	c-0.02,36.4-26.27,63.17-62.57,63.2c-202.63,0.14-405.25,0.11-607.88,0.02c-31.16-0.01-54.22-18.86-61.62-49.45
	c-0.27-1.14-0.81-2.21-1.23-3.31C33.34,461.72,33.34,301.3,33.34,140.89z M57.74,210.86c0,3.17,0,5.53,0,7.89
	c0,130.34-0.01,260.67,0.01,391.01c0,25.81,15.03,40.75,41.02,40.75c200.76,0.01,401.51,0.01,602.27,0
	c26.37,0,41.23-14.89,41.23-41.27c0.01-130.1,0-260.19,0-390.29c0-2.56,0-5.13,0-8.09C513.87,210.86,286.26,210.86,57.74,210.86z
	 M58,185.27c228.45,0,456.14,0,684.12,0c0-13.5,0.71-26.4-0.16-39.2c-1.39-20.23-17.73-33.55-40.02-33.55
	c-201.38-0.02-402.76-0.01-604.13-0.01c-1.67,0-3.35-0.02-5.01,0.11c-18.4,1.4-33.02,14.28-34.58,32.29
	C57.08,158.12,58,171.51,58,185.27z"/>
<path d="M253.43,381.7c-0.21-81,65.18-146.56,146.27-146.65c81.15-0.1,146.6,65.18,146.64,146.25
	c0.04,81.21-65.15,146.59-146.24,146.65C318.94,528.02,253.64,462.9,253.43,381.7z M277.7,381.16
	c-0.25,67.53,54.31,122.14,122.25,122.36c67.35,0.21,121.86-54.1,122.11-121.68c0.24-67.12-54.02-122.15-120.72-122.41
	C332.88,259.16,277.96,313.24,277.7,381.16z"/>
<path d="M400.74,552.58c46.77,0,93.55-0.01,140.32,0c11.81,0,17.56,3.88,17.8,11.92c0.25,8.32-5.77,12.6-17.84,12.6
	c-94.03,0.01-188.05,0-282.08,0c-0.95,0-1.91,0.02-2.86-0.01c-9.25-0.25-14.71-4.61-14.94-11.93c-0.23-7.57,5.46-12.54,14.98-12.55
	C304.33,552.55,352.53,552.58,400.74,552.58z"/>
<path d="M400,601.62c11.67,0,23.34-0.12,35.01,0.04c8.7,0.12,13.75,4.72,13.75,12.08c0,7.23-5.21,12.21-13.74,12.27
	c-23.34,0.17-46.68,0.17-70.01,0c-8.53-0.06-13.73-5.03-13.74-12.27c-0.01-7.36,5.03-11.96,13.73-12.08
	C376.66,601.5,388.33,601.62,400,601.62z"/>
<path d="M638.74,161.36c-22.44,0-44.88,0.13-67.31-0.07c-7.6-0.07-12.41-5.12-12.44-11.96c-0.02-6.47,4.57-11.37,11.62-12.23
	c1.88-0.23,3.81-0.14,5.72-0.14c41.3-0.01,82.59-0.01,123.89,0c1.19,0,2.39-0.03,3.58,0.02c8.47,0.37,13.93,5.16,13.97,12.25
	c0.04,7.15-5.32,12.09-13.87,12.14c-21.72,0.13-43.44,0.04-65.17,0.04C638.74,161.39,638.74,161.38,638.74,161.36z"/>
<path d="M399.26,161.4c-11.43,0-22.86,0.12-34.29-0.04c-8.7-0.12-13.72-4.74-13.7-12.12c0.02-7.24,5.21-12.17,13.76-12.23
	c23.34-0.16,46.68-0.16,70.01,0c8.53,0.06,13.73,5.04,13.71,12.28c-0.02,7.36-5.05,11.95-13.77,12.06
	C423.07,161.52,411.16,161.4,399.26,161.4z"/>
<path d="M106.49,149.61c-0.17,6.89-5.59,11.92-12.57,11.67c-6.51-0.24-11.69-5.55-11.69-11.99c0-6.6,5.78-12.31,12.36-12.21
	C101.3,137.18,106.65,142.82,106.49,149.61z"/>
<path d="M131.11,148.9c0.24-6.6,6.21-12.12,12.76-11.79c6.75,0.34,11.8,6.02,11.46,12.89c-0.33,6.6-5.5,11.38-12.2,11.3
	C136.36,161.21,130.87,155.54,131.11,148.9z"/>
<path d="M204.24,149.12c0.08,6.94-5.12,12.19-12.05,12.17c-6.84-0.02-12.24-5.47-12.11-12.22c0.12-6.39,5.42-11.76,11.81-11.98
	C198.55,136.86,204.16,142.33,204.24,149.12z"/>
<path d="M302.33,381.1c0.42-72.47,76.33-119.49,140.85-87.25c11.53,5.76,13.11,14.06,4.08,23.12
	c-37.22,37.33-74.5,74.61-111.83,111.82c-9.04,9.01-17.32,7.4-23.11-4.22C305.5,410.88,302.11,396.4,302.33,381.1z M328.78,397.78
	c29.18-29.2,58.49-58.53,87.34-87.4C367.09,297.16,315.86,342.7,328.78,397.78z"/>
<path d="M497.66,381.6c-0.01,71.52-74.65,118.77-139.43,88.28c-13.26-6.24-14.82-14.54-4.55-24.81
	c36.74-36.76,73.49-73.52,110.27-110.24c9.79-9.77,17.95-8.39,23.99,3.98C494.52,352.31,497.88,366.55,497.66,381.6z M471.54,364.9
	c-29.5,29.53-58.81,58.86-87.71,87.78c21.69,6.33,48.82-0.49,66.68-17.97C470.49,415.16,476.85,391.41,471.54,364.9z"/>
</svg>
