<?xml version="1.0" encoding="utf-8"?>
<!-- Generator: Adobe Illustrator 23.0.2, SVG Export Plug-In . SVG Version: 6.00 Build 0)  -->
<svg version="1.1" id="Layer_1" xmlns="http://www.w3.org/2000/svg" xmlns:xlink="http://www.w3.org/1999/xlink" x="0px" y="0px"
	 viewBox="0 0 178.1 178.1" style="enable-background:new 0 0 178.1 178.1;" xml:space="preserve">
<g>
	<path d="M103.4,57c0,1.2,0,2.2,0,3.6c2.1,0,4.2,0,6.4,0c2.6,0,4.2,1.4,4.2,3.6c0,2.2-1.6,3.5-4.2,3.5c-5.6,0-11.2,0-17.1,0
		c0,3-0.1,5.9,0.1,8.8c0,0.4,0.7,1.1,1.2,1.3c3.2,1.3,5.5,3.4,6.9,6.6c0.3,0.6,1.4,1.1,2.2,1.1c8.2,0.1,16.5,0,24.7,0.1
		c6.8,0,11.3,4.5,11.3,11.3c0,4.4,0,8.9,0,13.6c0.9,0,1.7,0,2.5,0c8.5,0,16.9,0,25.4,0c6.8,0,11.3,4.5,11.3,11.3c0,11.5,0,23,0,34.5
		c0,6.6-4.6,11.2-11.2,11.2c-5.6,0-11.1,0-16.7,0c-0.1,0-0.3,0.1-0.5,0.2c0,1,0,2,0,3.3c2.1,0,4.2,0,6.3,0c2.6,0,4.2,1.4,4.2,3.5
		c0,2.2-1.6,3.6-4.2,3.6c-13.8,0-27.6,0-41.4,0c-2.6,0-4.2-1.4-4.2-3.5c0-2.2,1.6-3.5,4.2-3.6c2.1,0,4.1,0,6.3,0c0-1.2,0-2.3,0-3.6
		c-5.4,0-10.8,0-16.2,0c-7.9,0-12.1-4.2-12.1-12.1c0-11.2,0-22.4,0-33.6c0-6.8,4.5-11.3,11.3-11.3c9.2,0,18.4,0,27.8,0
		c0-5,0.1-10-0.1-14.9c-0.1-1.8-1.6-2.9-3.4-2.9c-8.7,0-17.4,0-26,0c-0.5,0-1.2,0.5-1.4,1c-2.3,5.3-6.4,7.6-12,7.5
		c-5.6-0.1-9.6-2.8-11.6-8.1c-0.1-0.1-0.2-0.2-0.3-0.5c-8.9,0-17.9,0-26.9,0c-2.2,0-3.6,1.4-3.6,3.7c-0.1,4.6,0,9.2,0,14.1
		c0.9,0,1.7,0,2.4,0c8.5,0,17.1,0,25.6,0c6.5,0,11.1,4.6,11.1,11c0,11.6,0,23.3,0,34.9c0,6.3-4.6,11-10.9,11c-5.8,0-11.5,0-17.4,0
		c0,1.2,0,2.2,0,3.6c2.1,0,4.2,0,6.3,0c2.6,0,4.2,1.4,4.3,3.5c0,2.2-1.6,3.6-4.2,3.6c-13.8,0-27.6,0-41.4,0c-2.7,0-4.2-1.3-4.3-3.5
		c0-2.2,1.6-3.6,4.2-3.6c2.1,0,4.1,0,6.4,0c0-1.2,0-2.2,0-3.6c-5.8,0-11.5,0-17.3,0c-5.5,0-9.7-3.4-10.8-8.7C0,157.9,0,157,0,156.1
		c0-11.4,0-22.9,0-34.3c0-6.9,4.5-11.4,11.5-11.4c9.1,0,18.2,0,27.7,0c0-0.9,0-1.8,0-2.6c0-3.9,0-7.7,0-11.6
		c0.1-6,4.7-10.7,10.8-10.7c9,0,17.9,0,27,0c1.4-4.3,4.3-6.9,8.4-8.2c0-3.2,0-6.3,0-9.6c-5.2,0-10.3,0-15.4,0c-0.8,0-1.6,0-2.4,0
		c-2.1-0.2-3.5-1.7-3.4-3.7c0.1-1.9,1.4-3.3,3.4-3.4c2.3-0.1,4.6,0,7.1,0c0-1.2,0-2.2,0-3.5c-0.7,0-1.4-0.1-2.1-0.1
		c-5.2,0-10.4,0-15.6,0c-5.9-0.1-10.6-4.7-10.6-10.6c0-11.9,0-23.9,0-35.8C46.4,4.8,51.1,0,56.8,0c21.4,0,42.9,0,64.3,0
		c5.9,0,10.6,4.7,10.6,10.6c0,11.9,0,23.7,0,35.6c0,6-4.7,10.7-10.8,10.7c-5.1,0-10.2,0-15.4,0C104.9,57,104.2,57,103.4,57z
		 M89.1,49.9c10.3,0,20.6,0,30.9,0c3.5,0,4.7-1.2,4.7-4.7c0-11.1,0-22.3,0-33.4c0-3.5-1.2-4.7-4.7-4.7c-20.6,0-41.3,0-61.9,0
		c-3.5,0-4.7,1.2-4.7,4.7c0,11.1,0,22.3,0,33.4c0,3.5,1.2,4.7,4.7,4.7C68.4,49.9,78.7,49.9,89.1,49.9z M42.5,160.3
		c10.4,0,20.8,0,31.2,0c3.5,0,4.7-1.2,4.7-4.7c0-11.1,0-22.3,0-33.4c0-3.5-1.2-4.7-4.7-4.7c-20.6,0-41.3,0-61.9,0
		c-3.5,0-4.7,1.2-4.7,4.7c0,11.1,0,22.3,0,33.4c0,3.5,1.2,4.7,4.7,4.7C22,160.3,32.3,160.3,42.5,160.3z M135.1,160.3
		c10.4,0,20.8,0,31.2,0c3.5,0,4.7-1.2,4.7-4.7c0-11.1,0-22.3,0-33.4c0-3.5-1.2-4.7-4.7-4.7c-20.6,0-41.3,0-61.9,0
		c-3.5,0-4.7,1.2-4.7,4.7c0,11.1,0,22.3,0,33.4c0,3.5,1.2,4.7,4.7,4.7C114.7,160.3,124.9,160.3,135.1,160.3z M89,94.1
		c3.3,0,5.4-1.8,5.4-4.8c0.1-3.1-1.9-5.1-5.1-5.1c-3.4-0.1-5.5,1.8-5.5,4.9C83.7,92.1,85.7,94,89,94.1z M96.1,60.5
		c0-1.2,0-2.3,0-3.4c-4.7,0-9.3,0-14,0c0,1.2,0,2.2,0,3.4C86.8,60.5,91.4,60.5,96.1,60.5z M49.8,167.6c-4.8,0-9.5,0-14,0
		c0,1.2,0,2.3,0,3.2c4.8,0,9.4,0,14,0C49.8,169.7,49.8,168.7,49.8,167.6z M128.3,170.9c4.8,0,9.4,0,14.1,0c0-1.2,0-2.3,0-3.3
		c-4.8,0-9.4,0-14.1,0C128.3,168.7,128.3,169.7,128.3,170.9z"/>
</g>
</svg>
