<?xml version="1.0" encoding="utf-8"?>
<!-- Generator: Adobe Illustrator 23.0.2, SVG Export Plug-In . SVG Version: 6.00 Build 0)  -->
<svg version="1.1" id="Layer_1" xmlns="http://www.w3.org/2000/svg" xmlns:xlink="http://www.w3.org/1999/xlink" x="0px" y="0px"
	 viewBox="0 0 295.4 330" style="enable-background:new 0 0 295.4 330;" xml:space="preserve">
<g>
	<path d="M158.8,51.4c0,1.2,0,2,0,3.2c1.6,0,3.4,0,5,0c2.1,0,3.2,1.3,3.2,3.2c0,2-1.3,3.1-3.4,3.2c-4.4,0-8.8,0-13.4,0
		c0,2.8,0,5.3,0,7.9c0,0.3,0.5,0.9,0.9,1.2c2.6,1.2,4.3,3.1,5.4,5.9c0.2,0.6,1.2,1,1.7,1c6.5,0.1,12.9,0,19.4,0
		c5.3,0,8.8,4.1,8.9,10.2c0,4.1,0,8,0,12.3c0.7,0,1.3,0,2,0c6.6,0,13.2,0,19.9,0c5.3,0,8.9,4.1,8.9,10.2c0,10.4,0,20.8,0,31.2
		c0,5.9-3.6,10.1-8.8,10.1c-4.4,0-8.7,0-13.1,0c-0.1,0-0.2,0.1-0.3,0.2c0,0.9,0,1.7,0,3c1.6,0,3.2,0,5,0c2.1,0,3.4,1.3,3.4,3.2
		c0,2-1.3,3.2-3.2,3.2c-10.8,0-21.7,0-32.5,0c-2.1,0-3.4-1.3-3.4-3.2c0-2,1.3-3.2,3.2-3.2c1.6,0,3.2,0,5,0c0-1,0-2.1,0-3.2
		c-4.3,0-8.5,0-12.8,0c-6.1,0-9.5-3.8-9.5-10.9c0-10.1,0-20.2,0-30.4c0-6.1,3.6-10.2,8.8-10.2c7.2,0,14.4,0,21.8,0
		c0-4.5,0.1-9,0-13.4c0-1.6-1.3-2.6-2.7-2.6c-6.8,0-13.6,0-20.4,0c-0.3,0-0.9,0.5-1.2,0.8c-1.7,4.8-5.1,6.8-9.4,6.8
		c-4.4-0.1-7.5-2.6-9.2-7.3c0-0.1-0.1-0.2-0.2-0.5c-7,0-14,0-21.1,0c-1.7,0-2.8,1.3-2.8,3.4c0,4.2,0,8.3,0,12.8c0.7,0,1.3,0,2,0
		c6.7,0,13.3,0,20.1,0c5.1,0,8.7,4.2,8.7,10c0,10.5,0,21,0,31.5c0,5.7-3.6,10-8.6,10c-4.5,0-9,0-13.7,0c0,1,0,2,0,3.2
		c1.6,0,3.2,0,5,0c2.1,0,3.4,1.3,3.4,3.1c0,2-1.3,3.2-3.2,3.2c-10.8,0-21.7,0-32.5,0c-2.1,0-3.4-1.2-3.4-3.1c0-2,1.3-3.2,3.2-3.2
		c1.6,0,3.2,0,5,0c0-1,0-2.1,0-3.2c-4.5,0-9,0-13.6,0c-4.3,0-7.7-3-8.5-7.9c-0.1-0.8-0.1-1.6-0.1-2.4c0-10.3,0-20.6,0-31
		c0-6.3,3.6-10.2,9-10.2c7.2,0,14.3,0,21.7,0c0-0.8,0-1.6,0-2.4c0-3.5,0-7,0-10.4c0-5.4,3.7-9.6,8.5-9.6c7.1,0,14,0,21.2,0
		c1-3.8,3.4-6.3,6.6-7.4c0-2.9,0-5.7,0-8.7c-4.1,0-8.1,0-12.1,0c-0.7,0-1.3,0-2,0c-1.6-0.1-2.8-1.5-2.7-3.2c0-1.6,1.2-3,2.7-3
		c1.7-0.1,3.6,0,5.6,0c0-1,0-2,0-3.1c-0.5,0-1-0.1-1.6-0.1c-4.1,0-8.1,0-12.2,0c-4.6,0-8.3-4.3-8.3-9.6c0-10.8,0-21.6,0-32.3
		c0-5.2,3.7-9.5,8.2-9.5c16.8,0,33.6,0,50.4,0c4.6,0,8.3,4.3,8.3,9.6c0,10.7,0,21.4,0,32.1c0,5.4-3.7,9.6-8.5,9.6c-4.1,0-8,0-12.1,0
		C160,51.4,159.4,51.4,158.8,51.4z M147.5,44.9c8.1,0,16.2,0,24.2,0c2.8,0,3.7-1,3.7-4.2c0-10.1,0-20.1,0-30.1
		c0-3.1-0.9-4.2-3.7-4.2c-16.2,0-32.3,0-48.6,0c-2.8,0-3.7,1-3.7,4.2c0,10.1,0,20.1,0,30.1c0,3.1,0.9,4.2,3.7,4.2
		C131.3,44.9,139.4,44.9,147.5,44.9z M111,144.6c8.1,0,16.3,0,24.5,0c2.8,0,3.7-1,3.7-4.2c0-10.1,0-20.1,0-30.1
		c0-3.1-0.9-4.2-3.7-4.2c-16.2,0-32.3,0-48.6,0c-2.8,0-3.7,1-3.7,4.2c0,10.1,0,20.1,0,30.1c0,3.1,0.9,4.2,3.7,4.2
		C94.9,144.6,103,144.6,111,144.6z M183.6,144.6c8.1,0,16.3,0,24.5,0c2.8,0,3.7-1,3.7-4.2c0-10.1,0-20.1,0-30.1
		c0-3.1-0.9-4.2-3.7-4.2c-16.2,0-32.3,0-48.6,0c-2.8,0-3.7,1-3.7,4.2c0,10.1,0,20.1,0,30.1c0,3.1,0.9,4.2,3.7,4.2
		C167.6,144.6,175.6,144.6,183.6,144.6z M147.4,84.7c2.6,0,4.2-1.6,4.3-4.4c0-2.8-1.5-4.5-4.1-4.6c-2.7-0.1-4.3,1.6-4.3,4.4
		C143.3,83,144.9,84.7,147.4,84.7z M153,54.5c0-1.2,0-2.1,0-3c-3.7,0-7.3,0-11,0c0,1,0,2,0,3C145.7,54.5,149.3,54.5,153,54.5z
		 M116.7,151.2c-3.8,0-7.4,0-11,0c0,1,0,2.1,0,2.9c3.7,0,7.4,0,11,0C116.7,153,116.7,152.2,116.7,151.2z M178.3,154.1
		c3.8,0,7.4,0,11,0c0-1,0-2.1,0-2.9c-3.7,0-7.4,0-11,0C178.3,152.2,178.3,153,178.3,154.1z"/>
</g>
<g>
	<g>
		<path d="M236.8,220.6c0,1.2,0,2,0,3.2c1.6,0,3.4,0,5,0c2.1,0,3.2,1.3,3.2,3.2c0,2-1.3,3.1-3.4,3.2c-4.4,0-8.8,0-13.4,0
			c0,2.8,0,5.3,0,7.9c0,0.3,0.5,0.9,0.9,1.2c2.6,1.2,4.3,3.1,5.4,5.9c0.2,0.6,1.2,1,1.7,1c6.5,0.1,12.9,0,19.4,0
			c5.3,0,8.8,4.1,8.9,10.2c0,4.1,0,8,0,12.3c0.7,0,1.3,0,2,0c6.6,0,13.2,0,19.9,0c5.3,0,8.9,4.1,8.9,10.2c0,10.4,0,20.8,0,31.2
			c0,5.9-3.6,10.1-8.8,10.1c-4.4,0-8.7,0-13.1,0c-0.1,0-0.2,0.1-0.3,0.2c0,0.9,0,1.7,0,3c1.6,0,3.2,0,5,0c2.1,0,3.4,1.3,3.4,3.2
			c0,2-1.3,3.2-3.2,3.2c-10.8,0-21.7,0-32.5,0c-2.1,0-3.4-1.3-3.4-3.2c0-2,1.3-3.2,3.2-3.2c1.6,0,3.2,0,5,0c0-1,0-2.1,0-3.2
			c-4.3,0-8.5,0-12.8,0c-6.1,0-9.5-3.8-9.5-10.9c0-10.1,0-20.2,0-30.4c0-6.1,3.6-10.2,8.8-10.2c7.2,0,14.4,0,21.8,0
			c0-4.5,0.1-9,0-13.4c0-1.6-1.3-2.6-2.7-2.6c-6.8,0-13.6,0-20.4,0c-0.3,0-0.9,0.5-1.2,0.8c-1.7,4.8-5.1,6.8-9.4,6.8
			c-4.4-0.1-7.5-2.6-9.2-7.3c0-0.1-0.1-0.2-0.2-0.5c-7,0-14,0-21.1,0c-1.7,0-2.8,1.3-2.8,3.4c0,4.2,0,8.3,0,12.8c0.7,0,1.3,0,2,0
			c6.7,0,13.3,0,20.1,0c5.1,0,8.7,4.2,8.7,10c0,10.5,0,21,0,31.5c0,5.7-3.6,10-8.6,10c-4.5,0-9,0-13.7,0c0,1,0,2,0,3.2
			c1.6,0,3.2,0,5,0c2.1,0,3.4,1.3,3.4,3.1c0,2-1.3,3.2-3.2,3.2c-10.8,0-21.7,0-32.5,0c-2.1,0-3.4-1.2-3.4-3.1s1.3-3.2,3.2-3.2
			c1.6,0,3.2,0,5,0c0-1,0-2.1,0-3.2c-4.5,0-9,0-13.6,0c-4.3,0-7.7-3-8.5-7.9c-0.1-0.8-0.1-1.6-0.1-2.4c0-10.3,0-20.6,0-31
			c0-6.3,3.6-10.2,9-10.2c7.2,0,14.3,0,21.7,0c0-0.8,0-1.6,0-2.4c0-3.5,0-7,0-10.4c0-5.4,3.7-9.6,8.5-9.6c7.1,0,14,0,21.2,0
			c1-3.8,3.4-6.3,6.6-7.4c0-2.9,0-5.7,0-8.7c-4.1,0-8.1,0-12.1,0c-0.7,0-1.3,0-2,0c-1.6-0.1-2.8-1.5-2.7-3.2c0-1.6,1.2-3,2.7-3
			c1.7-0.1,3.6,0,5.6,0c0-1,0-2,0-3.1c-0.5,0-1-0.1-1.6-0.1c-4.1,0-8.1,0-12.2,0c-4.6,0-8.3-4.3-8.3-9.6c0-10.8,0-21.6,0-32.3
			c0-5.2,3.7-9.5,8.2-9.5c16.8,0,33.6,0,50.4,0c4.6,0,8.3,4.3,8.3,9.6c0,10.7,0,21.4,0,32.1c0,5.4-3.7,9.6-8.5,9.6
			c-4.1,0-8,0-12.1,0C237.9,220.6,237.5,220.6,236.8,220.6z M225.5,214.2c8.1,0,16.2,0,24.2,0c2.8,0,3.7-1,3.7-4.2
			c0-10.1,0-20.1,0-30.1c0-3.1-0.9-4.2-3.7-4.2c-16.2,0-32.3,0-48.6,0c-2.8,0-3.7,1-3.7,4.2c0,10.1,0,20.1,0,30.1
			c0,3.1,0.9,4.2,3.7,4.2C209.4,214.2,217.4,214.2,225.5,214.2z M189,313.8c8.1,0,16.3,0,24.5,0c2.8,0,3.7-1,3.7-4.2
			c0-10.1,0-20.1,0-30.1c0-3.1-0.9-4.2-3.7-4.2c-16.2,0-32.3,0-48.6,0c-2.8,0-3.7,1-3.7,4.2c0,10.1,0,20.1,0,30.1
			c0,3.1,0.9,4.2,3.7,4.2C173,313.9,181,313.8,189,313.8z M261.7,313.8c8.1,0,16.3,0,24.5,0c2.8,0,3.7-1,3.7-4.2
			c0-10.1,0-20.1,0-30.1c0-3.1-0.9-4.2-3.7-4.2c-16.2,0-32.3,0-48.6,0c-2.8,0-3.7,1-3.7,4.2c0,10.1,0,20.1,0,30.1
			c0,3.1,0.9,4.2,3.7,4.2C245.6,313.9,253.6,313.8,261.7,313.8z M225.4,254.1c2.6,0,4.2-1.6,4.3-4.4c0-2.8-1.5-4.5-4.1-4.6
			c-2.7-0.1-4.3,1.6-4.3,4.4C221.4,252.2,223,254,225.4,254.1z M231.1,223.7c0-1.2,0-2.1,0-3c-3.7,0-7.3,0-11,0c0,1,0,2,0,3
			C223.8,223.7,227.4,223.7,231.1,223.7z M194.8,320.4c-3.8,0-7.4,0-11,0c0,1,0,2.1,0,2.9c3.7,0,7.4,0,11,0
			C194.8,322.3,194.8,321.4,194.8,320.4z M256.3,323.4c3.8,0,7.4,0,11,0c0-1,0-2.1,0-2.9c-3.7,0-7.4,0-11,0
			C256.3,321.4,256.3,322.3,256.3,323.4z"/>
	</g>
	<g>
		<path d="M81,220.6c0,1.2,0,2,0,3.2c1.6,0,3.4,0,5,0c2.1,0,3.2,1.3,3.2,3.2c0,2-1.3,3.1-3.4,3.2c-4.4,0-8.8,0-13.4,0
			c0,2.8,0,5.3,0,7.9c0,0.3,0.5,0.9,0.9,1.2c2.6,1.2,4.3,3.1,5.4,5.9c0.2,0.6,1.2,1,1.7,1c6.5,0.1,12.9,0,19.4,0
			c5.3,0,8.8,4.1,8.9,10.2c0,4.1,0,8,0,12.3c0.7,0,1.3,0,2,0c6.6,0,13.2,0,19.9,0c5.3,0,8.9,4.1,8.9,10.2c0,10.4,0,20.8,0,31.2
			c0,5.9-3.6,10.1-8.8,10.1c-4.4,0-8.7,0-13.1,0c-0.1,0-0.2,0.1-0.3,0.2c0,0.9,0,1.7,0,3c1.6,0,3.2,0,5,0c2.1,0,3.4,1.3,3.4,3.2
			c0,2-1.3,3.2-3.2,3.2c-10.8,0-21.7,0-32.5,0c-2.1,0-3.4-1.3-3.4-3.2c0-2,1.3-3.2,3.2-3.2c1.6,0,3.2,0,5,0c0-1,0-2.1,0-3.2
			c-4.3,0-8.5,0-12.8,0c-6.1,0-9.5-3.8-9.5-10.9c0-10.1,0-20.2,0-30.4c0-6.1,3.6-10.2,8.8-10.2c7.2,0,14.4,0,21.8,0
			c0-4.5,0.1-9,0-13.4c0-1.6-1.3-2.6-2.7-2.6c-6.8,0-13.6,0-20.4,0c-0.3,0-0.9,0.5-1.2,0.8c-1.7,4.8-5.1,6.8-9.4,6.8
			c-4.4-0.1-7.5-2.6-9.2-7.3c0-0.1-0.1-0.2-0.2-0.5c-7,0-14,0-21.1,0c-1.7,0-2.8,1.3-2.8,3.4c0,4.2,0,8.3,0,12.8c0.7,0,1.3,0,2,0
			c6.7,0,13.3,0,20.1,0c5.1,0,8.7,4.2,8.7,10c0,10.5,0,21,0,31.5c0,5.7-3.6,10-8.6,10c-4.5,0-9,0-13.7,0c0,1,0,2,0,3.2
			c1.6,0,3.2,0,5,0c2.1,0,3.4,1.3,3.4,3.1c0,2-1.3,3.2-3.2,3.2c-10.8,0-21.7,0-32.5,0c-2.1,0-3.4-1.2-3.4-3.1s1.3-3.2,3.2-3.2
			c1.6,0,3.2,0,5,0c0-1,0-2.1,0-3.2c-4.5,0-9,0-13.6,0c-4.3,0-7.7-3-8.5-7.9C0,311.6,0,310.8,0,310.1c0-10.3,0-20.6,0-31
			c0-6.3,3.6-10.2,9-10.2c7.2,0,14.3,0,21.7,0c0-0.8,0-1.6,0-2.4c0-3.5,0-7,0-10.4c0-5.4,3.7-9.6,8.5-9.6c7.1,0,14,0,21.2,0
			c1-3.8,3.4-6.3,6.6-7.4c0-2.9,0-5.7,0-8.7c-4.1,0-8.1,0-12.1,0c-0.7,0-1.3,0-2,0c-1.6-0.1-2.8-1.5-2.7-3.2c0-1.6,1.2-3,2.7-3
			c1.7-0.1,3.6,0,5.6,0c0-1,0-2,0-3.1c-0.5,0-1-0.1-1.6-0.1c-4.1,0-8.1,0-12.2,0c-4.6,0-8.3-4.3-8.3-9.6c0-10.8,0-21.6,0-32.3
			c0-5.2,3.7-9.5,8.2-9.5c16.8,0,33.6,0,50.4,0c4.6,0,8.3,4.3,8.3,9.6c0,10.7,0,21.4,0,32.1c0,5.4-3.7,9.6-8.5,9.6
			c-4.1,0-8,0-12.1,0C82.3,220.6,81.7,220.6,81,220.6z M69.8,214.2c8.1,0,16.2,0,24.2,0c2.8,0,3.7-1,3.7-4.2c0-10.1,0-20.1,0-30.1
			c0-3.1-0.9-4.2-3.7-4.2c-16.2,0-32.3,0-48.6,0c-2.8,0-3.7,1-3.7,4.2c0,10.1,0,20.1,0,30.1c0,3.1,0.9,4.2,3.7,4.2
			C53.7,214.2,61.7,214.2,69.8,214.2z M33.4,313.8c8.1,0,16.3,0,24.5,0c2.8,0,3.7-1,3.7-4.2c0-10.1,0-20.1,0-30.1
			c0-3.1-0.9-4.2-3.7-4.2c-16.2,0-32.3,0-48.6,0c-2.8,0-3.7,1-3.7,4.2c0,10.1,0,20.1,0,30.1c0,3.1,0.9,4.2,3.7,4.2
			C17.3,313.9,25.3,313.8,33.4,313.8z M106,313.8c8.1,0,16.3,0,24.5,0c2.8,0,3.7-1,3.7-4.2c0-10.1,0-20.1,0-30.1
			c0-3.1-0.9-4.2-3.7-4.2c-16.2,0-32.3,0-48.6,0c-2.8,0-3.7,1-3.7,4.2c0,10.1,0,20.1,0,30.1c0,3.1,0.9,4.2,3.7,4.2
			C89.8,313.9,98,313.8,106,313.8z M69.8,254.1c2.6,0,4.2-1.6,4.3-4.4c0-2.8-1.5-4.5-4.1-4.6c-2.7-0.1-4.3,1.6-4.3,4.4
			C65.6,252.2,67.2,254,69.8,254.1z M75.4,223.7c0-1.2,0-2.1,0-3c-3.7,0-7.3,0-11,0c0,1,0,2,0,3C68,223.7,71.6,223.7,75.4,223.7z
			 M39.1,320.4c-3.8,0-7.4,0-11,0c0,1,0,2.1,0,2.9c3.7,0,7.4,0,11,0C39.1,322.3,39.1,321.4,39.1,320.4z M100.5,323.4
			c3.8,0,7.4,0,11,0c0-1,0-2.1,0-2.9c-3.7,0-7.4,0-11,0C100.5,321.4,100.5,322.3,100.5,323.4z"/>
	</g>
</g>
</svg>
