<?xml version="1.0" encoding="utf-8"?>
<!-- Generator: Adobe Illustrator 23.0.2, SVG Export Plug-In . SVG Version: 6.00 Build 0)  -->
<svg version="1.1" id="Layer_1" xmlns="http://www.w3.org/2000/svg" xmlns:xlink="http://www.w3.org/1999/xlink" x="0px" y="0px"
	 viewBox="0 0 19.1 19.1" style="enable-background:new 0 0 19.1 19.1;" xml:space="preserve">
<g>
	<path d="M0,8.9c0.1-0.2,0.1-0.3,0.2-0.5c0.2-0.4,0.6-0.5,1-0.5c2.1,0,4.2,0,6.3,0c0.7,0,1.2,0.5,1.2,1.3c0,1.5,0,3,0,4.5
		c0,1.4,0,2.7,0,4.1c0,0.7-0.4,1.1-1,1.2c-0.1,0-0.2,0-0.3,0c-2,0-4.1,0-6.1,0c-0.7,0-1.1-0.3-1.3-0.9c0,0,0,0,0-0.1
		C0,15,0,12,0,8.9z M7.9,13.5c0-1.4,0-2.8,0-4.2c0-0.4-0.1-0.5-0.5-0.5c-2,0-4.1,0-6.1,0c-0.4,0-0.5,0.1-0.5,0.5c0,2.8,0,5.6,0,8.5
		c0,0.4,0.1,0.5,0.5,0.5c2,0,4,0,6.1,0c0.4,0,0.5-0.1,0.5-0.5C7.9,16.3,7.9,14.9,7.9,13.5z"/>
	<path d="M19.1,10.1c0,0.1-0.1,0.2-0.1,0.3c-0.2,0.4-0.6,0.7-1.1,0.7c-2.1,0-4.2,0-6.3,0c-0.7,0-1.2-0.5-1.2-1.3c0-1.8,0-3.7,0-5.5
		c0-1,0-1.9,0-2.9c0-0.9,0.2-1.2,1-1.5c2.2,0,4.5,0,6.7,0c0.2,0.1,0.4,0.1,0.5,0.2C18.9,0.4,19,0.7,19.1,1
		C19.1,4,19.1,7.1,19.1,10.1z M11.1,5.6c0,1.4,0,2.8,0,4.3c0,0.4,0.1,0.5,0.5,0.5c2,0,4.1,0,6.1,0c0.4,0,0.5-0.1,0.5-0.5
		c0-2.8,0-5.7,0-8.5c0-0.4-0.1-0.5-0.5-0.5c-2,0-4.1,0-6.1,0c-0.4,0-0.5,0.1-0.5,0.5C11.1,2.7,11.1,4.1,11.1,5.6z"/>
	<path d="M7.8,0c0.2,0.1,0.3,0.1,0.5,0.2c0.4,0.2,0.5,0.6,0.5,1c0,1.3,0,2.6,0,3.9c0,0.7-0.5,1.2-1.2,1.2c-2.1,0-4.2,0-6.3,0
		C0.6,6.4,0.2,6,0,5.4c0,0,0,0,0-0.1C0,3.9,0,2.4,0,1c0.1-0.3,0.2-0.6,0.5-0.7C0.6,0.1,0.8,0.1,1,0C3.2,0,5.5,0,7.8,0z M4.4,5.6
		c1,0,2,0,3.1,0c0.4,0,0.5-0.1,0.5-0.5c0-1.2,0-2.5,0-3.7c0-0.4-0.1-0.5-0.5-0.5c-2,0-4.1,0-6.1,0c-0.4,0-0.5,0.1-0.5,0.5
		c0,1.3,0,2.5,0,3.8c0,0.4,0.1,0.5,0.5,0.5C2.3,5.6,3.3,5.6,4.4,5.6z"/>
	<path d="M19.1,18.1c0,0.1,0,0.1-0.1,0.2c-0.2,0.5-0.6,0.8-1.1,0.8c-2.1,0-4.3,0-6.4,0c-0.6,0-1.2-0.5-1.2-1.2c0-1.3,0-2.7,0-4
		c0-0.7,0.5-1.2,1.3-1.2c1.5,0,3,0,4.5,0c0.6,0,1.1,0,1.7,0c0.7,0,1.1,0.3,1.3,0.9c0,0,0,0,0,0C19.1,15.2,19.1,16.6,19.1,18.1z
		 M14.7,13.5c-1,0-2.1,0-3.1,0c-0.4,0-0.5,0.1-0.5,0.5c0,1.3,0,2.5,0,3.8c0,0.4,0.1,0.5,0.5,0.5c2,0,4.1,0,6.1,0
		c0.4,0,0.5-0.1,0.5-0.5c0-1.2,0-2.5,0-3.7c0-0.4-0.1-0.5-0.5-0.5C16.8,13.5,15.7,13.5,14.7,13.5z"/>
</g>
</svg>
