<?xml version="1.0" encoding="utf-8"?>
<!-- Generator: Adobe Illustrator 23.0.2, SVG Export Plug-In . SVG Version: 6.00 Build 0)  -->
<svg version="1.1" id="Layer_1" xmlns="http://www.w3.org/2000/svg" xmlns:xlink="http://www.w3.org/1999/xlink" x="0px" y="0px"
	 viewBox="0 0 247.4 384" style="enable-background:new 0 0 247.4 384;" xml:space="preserve">
<g>
	<path d="M132.8,0c8.1,1.5,16.3,2.5,24.2,4.6c49.1,13.2,85.7,57.3,90,107.9c2.7,32.4-5.7,61.7-25.7,87.3
		c-31.6,40.5-63.6,80.6-95.4,120.9c-0.6,0.8-1.3,1.5-2.1,2.4c-0.9-1-1.6-1.8-2.3-2.7c-31.7-40.1-63.6-80-95-120.3
		C-26.8,131.5,3.9,32.3,86.7,5.9c8.1-2.6,16.8-3.5,25.2-5.2c1-0.2,1.9-0.4,2.9-0.6C120.8,0,126.8,0,132.8,0z M123.7,287
		c1-1.1,1.6-1.7,2.1-2.4c25.8-32.6,51.6-65.2,77.3-98c18.4-23.5,25.1-50.1,20.5-79.5c-9.1-58.2-69-96.9-125.8-81.2
		C27,45.5-0.6,128.7,44.5,186.7c18.5,23.8,37.3,47.3,55.9,70.9C108.1,267.3,115.8,276.9,123.7,287z"/>
	<path d="M66,299.5c1.7,7.8,3.2,14.8,4.8,22c-4.9,1.4-9.5,2.4-13.9,4c-5.8,2.2-11.8,4.4-17,7.6c-8.1,5-8.1,6.9,0.1,11.6
		c7.1,4,14.8,7.3,22.7,9.3c42.1,10.4,84.3,10.4,126.3-1.2c7.4-2.1,14.4-6.1,21.2-9.9c4.7-2.7,4.4-4.7,0-8.1c-8-6.2-17.5-9-27-11.6
		c-2-0.6-4.1-1.1-6.5-1.7c1.6-7.2,3.1-14.2,4.7-21.6c1.6,0.3,3,0.5,4.4,0.8c14,3.5,27.7,7.8,39.1,17.1c8.5,6.9,13.3,15.6,10.6,27
		c-1.6,6.7-5.9,11.8-11.2,15.9c-11.3,8.8-24.5,13.2-38.2,16.4c-29.3,6.8-59,8.2-89,5.5c-19.3-1.7-38.4-4.8-56.5-12.2
		c-7.7-3.1-14.9-7-20.9-12.9c-11.3-11.2-11.3-26,0.1-37.1c8-7.9,18.1-12.3,28.6-15.8C54,302.7,59.8,301.3,66,299.5z"/>
</g>
<g>
	<path d="M97.7,76.1v105.8H78.4V76.1H97.7z"/>
	<path d="M119.8,77.5c6.9-1.3,16.5-2.2,29.5-2.2c14.1,0,24.5,3,31.2,8.6c6.3,5.2,10.4,13.5,10.4,23.4c0,10-3.1,18.4-9.1,24
		c-7.7,7.7-19.8,11.3-33.4,11.3c-3.6,0-6.9-0.2-9.4-0.6v39.9h-19.2V77.5z M139,126.8c2.4,0.6,5.5,0.8,9.4,0.8
		c14.4,0,23.2-7.1,23.2-19.5c0-11.8-8.2-18.1-21.5-18.1c-5.3,0-9.1,0.5-11.1,0.9V126.8z"/>
</g>
</svg>
