<?xml version="1.0" encoding="utf-8"?>
<!-- Generator: Adobe Illustrator 23.0.2, SVG Export Plug-In . SVG Version: 6.00 Build 0)  -->
<svg version="1.1" id="Layer_1" xmlns="http://www.w3.org/2000/svg" xmlns:xlink="http://www.w3.org/1999/xlink" x="0px" y="0px"
	 viewBox="0 0 18.8 19.1" style="enable-background:new 0 0 18.8 19.1;" xml:space="preserve">
<g>
	<path d="M4.7,19.1c-0.4-0.1-0.6-0.3-0.9-0.6c-0.3-0.3-0.6-0.6-1-1c-0.1,0.2-0.2,0.3-0.4,0.4c-0.2,0.2-0.4,0.4-0.6,0.6
		c-0.4,0.4-1.1,0.4-1.5-0.1c-0.4-0.4-0.4-1.1-0.1-1.5c0.1-0.1,0.1-0.1,0.2-0.2c2.9-2.9,5.8-5.8,8.7-8.7c0.1-0.1,0.1-0.2,0-0.4
		C7.8,5.5,8.4,2.6,10.5,1c1.9-1.4,4.5-1.4,6.4,0.1c1.1,0.8,1.7,2,1.9,3.3c0.3,2.4-0.9,4.6-3.1,5.5c-1.6,0.6-3.1,0.5-4.6-0.3
		c-0.1,0-0.1-0.1-0.2-0.1c-1.4,1.4-2.7,2.7-4.1,4.1c0.4,0.4,0.8,0.8,1.2,1.2c0.3,0.3,0.5,0.7,0.3,1.2c-0.2,0.7-1.2,1-1.7,0.5
		C6.2,16.3,6,16,5.8,15.8c-0.3,0.3-0.5,0.5-0.8,0.8c0.2,0.2,0.4,0.4,0.6,0.6c0.5,0.5,0.5,1.3-0.1,1.7C5.4,19,5.2,19,5.1,19.1
		C4.9,19.1,4.8,19.1,4.7,19.1z M13.6,0.6c-0.6,0-1.2,0.1-1.8,0.4c-2.7,1.1-3.6,4.3-2,6.7C10,8,10,8.1,9.8,8.3c-2.5,2.5-5,5-7.4,7.4
		c-0.5,0.5-1,1-1.5,1.5c-0.1,0.1-0.2,0.2-0.2,0.3c-0.1,0.2,0.1,0.4,0.3,0.5c0.2,0.1,0.4,0.1,0.6-0.1c0.4-0.4,0.7-0.7,1.1-1.1
		c0.2-0.2,0.4-0.2,0.6,0c0.4,0.4,0.9,0.9,1.3,1.3c0.2,0.2,0.5,0.3,0.8,0c0.2-0.2,0.2-0.5,0-0.8c-0.2-0.2-0.5-0.5-0.7-0.7
		c-0.2-0.2-0.2-0.4,0-0.6c0.3-0.3,0.6-0.7,1-1C5.7,15,5.8,15,6,15.2c0.3,0.2,0.5,0.5,0.8,0.8c0.1,0.1,0.3,0.2,0.5,0.2
		c0.4-0.1,0.5-0.6,0.2-0.9c-0.4-0.4-0.9-0.9-1.3-1.3c-0.3-0.3-0.3-0.4,0-0.7c1.4-1.4,2.9-2.9,4.3-4.3c0.3-0.3,0.3-0.3,0.6-0.1
		c1,0.7,2.1,0.9,3.3,0.7c2.4-0.4,4.1-2.6,3.8-5.1C17.9,2.3,15.9,0.6,13.6,0.6z"/>
	<path d="M10.1,5.2c0-1.8,1.3-3.3,3.2-3.5c1.6-0.2,3.2,0.8,3.7,2.3c0.1,0.2,0,0.4-0.2,0.4c-0.2,0.1-0.3,0-0.4-0.2
		c-0.3-0.6-0.7-1.2-1.3-1.5c-1.8-1.1-4.1,0-4.4,2.1c-0.3,1.9,1.2,3.5,3.1,3.4c1.5-0.1,2.6-1.2,2.8-2.7c0,0,0-0.1,0-0.1
		c0-0.2,0.2-0.3,0.3-0.3c0.2,0,0.3,0.2,0.3,0.4c0,0.4-0.1,0.9-0.3,1.3c-0.6,1.4-2,2.2-3.6,2.1c-1.7-0.1-3.1-1.6-3.2-3.3
		C10.1,5.3,10.1,5.3,10.1,5.2z"/>
</g>
</svg>
